<svg width="1000" height="800" xmlns="http://www.w3.org/2000/svg">
<polygon points="0.0,800.0 0.0,-1.1368683772161603e-13 1000.0,-1.1368683772161603e-13 1000.0,800.0 0.0,800.0" fill="rgba(173, 216, 230, 0.6)" stroke="black" stroke-width="2"/>
<text x="400.0" y="480.0" font-size="14" fill="black">Region 316</text>
<polygon points="322.6890756302521,670.4752275025278 322.6890756302521,156.8250758341759 667.2268907563026,156.8250758341759 667.2268907563026,670.4752275025278 322.6890756302521,670.4752275025278" fill="rgba(173, 216, 230, 0.6)" stroke="black" stroke-width="2"/>
<text x="460.5042016806723" y="465.015166835187" font-size="14" fill="black">Region 317</text>
<polygon points="451.73515546218493,618.5606147623862 450.6900630252101,530.6805055611728 559.2470588235294,530.5444691607685 559.2470588235294,562.6905197168858 614.1061344537816,562.3438503538928 613.9592857142858,634.1959959555106 573.2006302521008,634.3419817997977 573.0998949579832,620.1257431749242 451.73515546218493,618.5606147623862" fill="rgba(173, 216, 230, 0.6)" stroke="black" stroke-width="2"/>
<text x="538.5578263305322" y="590.2271439164139" font-size="14" fill="black">Region 323</text>
<polygon points="400.46145798319327,618.4000323559151 400.58605882352947,530.9853589484328 450.4506302521009,530.9474216380182 450.2023697478991,618.4380384226491 400.46145798319327,618.4000323559151" fill="rgba(173, 216, 230, 0.6)" stroke="black" stroke-width="2"/>
<text x="420.43239495798315" y="583.4341767441861" font-size="14" fill="black">Region 322</text>
<polygon points="346.6585462184874,659.6189484327604 346.64440336134453,642.0239110212335 330.93389495798317,641.9736946410516 328.8961092436975,164.5573710819009 466.6338235294118,164.48513650151676 466.74570168067225,218.52469160768453 488.64039495798323,218.4645500505561 488.75902100840335,261.94604651162786 510.555768907563,291.69178968655206 510.2083739495798,381.38552072800803 632.9201260504202,383.6486147623862 632.9202268907563,430.40721941354906 658.3191596638655,432.0408897876643 657.6261344537816,490.9801658240647 658.1865714285715,492.81211729019213 658.3467647058824,641.4543255813953 641.8893277310924,641.3627421638018 642.0136974789916,657.5995995955511 346.6585462184874,659.6189484327604" fill="rgba(173, 216, 230, 0.6)" stroke="black" stroke-width="2"/>
<text x="516.5029785493144" y="446.031383321803" font-size="14" fill="black">Region 319</text>
<polygon points="400.63650840336135,530.679757330637 400.4656302521008,495.7711506572295 450.5909075630252,495.5139332659252 450.731218487395,530.4760930232558 400.63650840336135,530.679757330637" fill="rgba(173, 216, 230, 0.6)" stroke="black" stroke-width="2"/>
<text x="420.61215462184873" y="516.6241383215369" font-size="14" fill="black">Region 326</text>
<polygon points="346.6585462184874,659.6189484327604 346.64440336134453,642.0239110212335 330.93389495798317,641.9736946410516 329.11975210084034,334.87783215369063 357.7529831932773,334.530111223458 357.7339579831933,293.81737512639035 510.32393697478994,293.39178968655204 510.2083739495798,381.38552072800803 632.9201260504202,383.6486147623862 632.9202268907563,430.40721941354906 658.3191596638655,432.0408897876643 658.3467647058824,641.4543255813953 641.8893277310924,641.3627421638018 642.0136974789916,657.5995995955511 346.6585462184874,659.6189484327604" fill="rgba(173, 216, 230, 0.6)" stroke="black" stroke-width="2"/>
<text x="486.8295798319328" y="495.18343485001685" font-size="14" fill="black">Region 320</text>
<polygon points="559.7548151260504,562.1504145601618 560.0979831932773,530.3827826086956 593.1065546218488,530.3551061678463 592.5548151260504,561.9933670374115 559.7548151260504,562.1504145601618" fill="rgba(173, 216, 230, 0.6)" stroke="black" stroke-width="2"/>
<text x="573.0537966386554" y="549.4064169868554" font-size="14" fill="black">Region 324</text>
<polygon points="592.5548151260504,561.9933670374115 593.1065546218488,530.3551061678463 614.1217226890756,529.891324570273 614.1061344537816,562.3438503538928 592.5548151260504,561.9933670374115" fill="rgba(173, 216, 230, 0.6)" stroke="black" stroke-width="2"/>
<text x="601.2888084033614" y="549.315403033367" font-size="14" fill="black">Region 325</text>
<polygon points="329.69815546218484,464.5077451971689 329.353474789916,384.0506450960566 398.32271008403364,383.88618806875627 398.624012605042,464.2198584428716 329.69815546218484,464.5077451971689" fill="rgba(173, 216, 230, 0.6)" stroke="black" stroke-width="2"/>
<text x="357.13930168067225" y="432.23443640040443" font-size="14" fill="black">Region 328</text>
<polygon points="389.5293949579832,381.50305358948435 389.4022773109244,293.478786653185 510.22430672268905,293.48190091001004 510.3973109243698,381.49504550050557 389.5293949579832,381.50305358948435" fill="rgba(173, 216, 230, 0.6)" stroke="black" stroke-width="2"/>
<text x="437.81653697479" y="346.29236804853383" font-size="14" fill="black">Region 330</text>
<polygon points="370.86415126050423,609.6999716885744 371.2269915966387,579.5496420626896 371.4379411764706,578.844295247725 371.3511806722689,495.65788877654194 400.0865924369748,495.7442103134479 399.96364705882354,578.9279191102123 400.03304201680675,579.516622851365 400.03304201680675,609.6999716885744 370.86415126050423,609.6999716885744" fill="rgba(173, 216, 230, 0.6)" stroke="black" stroke-width="2"/>
<text x="383.98452661064425" y="570.8156103808561" font-size="14" fill="black">Region 327</text>
<polygon points="493.5851680672269,492.6971890798786 495.00962184873947,383.69799797775534 632.4293277310925,383.22734074823046 632.5602521008403,430.0966632962589 563.7613235294118,430.3121334681496 563.768037815126,445.57425278058645 563.8238655462185,492.6893427704752 493.5851680672269,492.6971890798786" fill="rgba(173, 216, 230, 0.6)" stroke="black" stroke-width="2"/>
<text x="554.8153455882353" y="443.87401365015165" font-size="14" fill="black">Region 332</text>
<polygon points="329.50006302521007,381.5214964610718 329.11599159663865,334.7386046511628 357.7513361344538,334.59138523761374 357.46728151260504,293.8583619817998 387.42520588235294,293.3462891809909 387.53720168067224,381.30353892821034 329.50006302521007,381.5214964610718" fill="rgba(173, 216, 230, 0.6)" stroke="black" stroke-width="2"/>
<text x="354.0424489795918" y="342.9830247002745" font-size="14" fill="black">Region 329</text>
<polygon points="329.08761764705883,332.92970677451973 328.8961092436975,164.5573710819009 466.6338235294118,164.48513650151676 466.74570168067225,218.52469160768453 488.64039495798323,218.4645500505561 510.555768907563,291.69178968655206 376.84852941176473,291.84978766430737 356.0486848739496,291.95437815975725 356.1680756302521,332.97337108190095 329.08761764705883,332.92970677451973" fill="rgba(173, 216, 230, 0.6)" stroke="black" stroke-width="2"/>
<text x="400.8712323529412" y="264.0360489383215" font-size="14" fill="black">Region 321</text>
<polygon points="400.56510084033613,432.45809908998984 400.62217226890755,423.03378361981805 400.62402100840336,392.9739817997978 400.62402100840336,383.95261476238625 478.7285,383.95261476238625 493.6660210084034,384.25941354903944 494.0925924369748,464.16757532861476 466.48073949579833,464.0520121334681 466.8868067226891,432.4646875631951 464.8515672268907,432.293646107179 400.56510084033613,432.45809908998984" fill="rgba(173, 216, 230, 0.6)" stroke="black" stroke-width="2"/>
<text x="442.5187857142857" y="420.55150252780584" font-size="14" fill="black">Region 331</text>
<polygon points="329.08761764705883,332.92970677451973 329.14965546218485,309.1497674418605 329.14965546218485,309.1497674418605 329.14965546218485,309.1497674418605 329.14965546218485,309.1497674418605 329.14965546218485,309.1497674418605 335.1900882352941,309.2023053589484 335.1689579831933,300.51389282103133 329.07778151260504,299.64493427704747 329.14001260504205,230.13654196157734 370.94805042016804,230.21654196157726 385.57308403361344,229.97573306370066 385.5464537815126,264.1263902932254 415.33351680672274,263.85985844287154 473.8899411764706,263.581456016178 487.95413445378153,263.68861476238624 500.3524789915966,263.68497472194133 500.3524789915966,291.51425682507585 356.0486848739496,291.95437815975725 356.1680756302521,332.97337108190095 329.08761764705883,332.92970677451973" fill="rgba(173, 216, 230, 0.6)" stroke="black" stroke-width="2"/>
<text x="374.5079643857543" y="287.93721430978866" font-size="14" fill="black">Region 333</text>
<polygon points="388.1062647058824,262.2448938321537 388.0370294117647,164.65128412537922 429.4968151260504,164.47781597573305 430.03343697478994,261.91389282103137 388.1062647058824,262.2448938321537" fill="rgba(173, 216, 230, 0.6)" stroke="black" stroke-width="2"/>
<text x="404.75596218487397" y="223.1065561172902" font-size="14" fill="black">Region 335</text>
<polygon points="565.8069327731092,491.12766430738117 565.7178277310924,432.40215571284125 657.6923529411765,431.5947178968655 658.0204873949581,491.23330232558135 565.8069327731092,491.12766430738117" fill="rgba(173, 216, 230, 0.6)" stroke="black" stroke-width="2"/>
<text x="602.6089067226891" y="467.4971009100101" font-size="14" fill="black">Region 338</text>
<polygon points="431.4566176470588,262.14018200202224 431.4359159663866,164.570353892821 466.7365336134454,164.6931850353892 466.76121848739496,218.59277654196148 488.6632773109244,218.5805055611729 488.76680672268907,261.8959555106168 431.4566176470588,262.14018200202224" fill="rgba(173, 216, 230, 0.6)" stroke="black" stroke-width="2"/>
<text x="457.896712484994" y="221.801877220858" font-size="14" fill="black">Region 336</text>
<polygon points="346.6585462184874,659.6189484327604 346.64440336134453,642.0239110212335 330.93389495798317,641.9736946410516 328.8961092436975,164.5573710819009 658.3467647058824,164.5573710819009 658.3467647058824,641.4543255813953 641.8893277310924,641.3627421638018 642.0136974789916,657.5995995955511 346.6585462184874,659.6189484327604" fill="rgba(173, 216, 230, 0.6)" stroke="black" stroke-width="2"/>
<text x="477.8208949579832" y="541.4185457813729" font-size="14" fill="black">Region 318</text>
<polygon points="450.8469159663866,643.2512558139535 450.97421008403364,618.934786653185 572.7465126050421,618.9262649140546 572.827911764706,635.0276157735086 572.827911764706,635.0276157735086 572.827911764706,635.0276157735086 572.827911764706,635.0276157735086 572.827911764706,635.0276157735086 614.5469327731092,634.6466006066734 613.0814705882353,530.9884125379172 451.43729411764707,530.0448816986855 451.1451176470588,494.6531243680485 370.624256302521,495.0976177957533 370.7620336134454,521.1897917087967 329.88082352941177,521.1976299292214 329.6982521008403,466.2949807886754 493.3340462184874,465.7620020222447 493.5070588235294,492.57836198179984 529.0741512605042,492.9767037411527 555.7733445378152,492.7505561172902 563.8596638655463,492.72722750252774 658.1095798319328,492.77180182002024 658.3467647058824,641.4543255813953 641.8893277310924,641.3627421638018 642.0136974789916,657.5995995955511 346.6585462184874,659.6189484327604 346.6585462184874,659.6189484327604 342.46944285714284,642.0239110212335 330.93389495798317,641.9736946410516 331.4116554621849,588.8350374115267 369.0103025210084,588.9219575328615 368.75818907563024,628.2488331648129 370.7523613445378,628.1619332659252 370.6658361344538,610.4457472194135 400.3797142857143,610.4808372093023 400.4958109243698,618.9365096056623 416.19928571428574,618.9361820020222 415.9944957983193,643.2667745197168 415.9944957983193,643.2667745197168 415.9944957983193,643.2667745197168" fill="rgba(173, 216, 230, 0.6)" stroke="black" stroke-width="2"/>
<text x="468.7042021428571" y="588.6587402426693" font-size="14" fill="black">Region 337</text>
<polygon points="329.2054411764706,228.39001011122343 328.86573529411766,165.0199393326592 386.3656974789916,164.9085136501517 386.26460924369746,228.31878665318504 329.2054411764706,228.39001011122343" fill="rgba(173, 216, 230, 0.6)" stroke="black" stroke-width="2"/>
<text x="351.9813848739496" y="203.00545197168856" font-size="14" fill="black">Region 334</text>
</svg>